<?xml version="1.0"?>
<svg width="209.252" height="57.898" xmlns="http://www.w3.org/2000/svg" xmlns:svg="http://www.w3.org/2000/svg" data-name="Group 23">
 <defs>
  <style>.cls-1 {
        fill: #432;
      }

      .cls-2 {
        fill: #fff;
      }

      .cls-3 {
        fill: #0bd;
      }

      .cls-4 {
        fill: #8de1ff;
      }

      .cls-5 {
        fill: none;
        stroke: #fff;
        stroke-width: 2.5px;
      }</style>
 </defs>
 <g class="layer">
  <title>Layer 1</title>
  <g data-name="Group 22" id="Group_22">
   <path class="cls-2" d="m29.7,59.36a14.23,14.23 0 0 1 -1.5,-1.36l22.21,0a14.23,14.23 0 0 1 -1.5,1.36l-19.21,0z" id="Intersection_1_2_" transform="translate(-8.991 -18.493)"/>
   <circle class="cls-3" cx="28.95" cy="28.95" id="Ellipse_11_3_" r="28.95"/>
   <g id="Ellipse_11_2_" transform="translate(1.703 1.703)">
    <circle class="cls-3" cx="26.57" cy="26.57" data-name="Ellipse 13" id="Ellipse_13" r="26.57" transform="translate(0.681 0.681)"/>
    <g data-name="Group 19" id="Group_19">
     <path class="cls-2" d="m29.75,3.86a25.88,25.88 0 1 1 -25.89,25.89a25.87,25.87 0 0 1 25.89,-25.89m0,-1.36a27.25,27.25 0 1 0 27.24,27.25a27.28,27.28 0 0 0 -27.24,-27.25z" data-name="Path 22" id="Path_22" transform="translate(-2.5 -2.5)"/>
    </g>
   </g>
   <g id="Ellipse_11_1_" transform="translate(12.261 12.261)">
    <circle class="cls-4" cx="16.01" cy="16.01" data-name="Ellipse 14" id="Ellipse_14" r="16.01" transform="translate(0.681 0.681)"/>
    <path class="cls-2" d="m34.69,19.36a15.33,15.33 0 1 1 -15.33,15.33a15.35,15.35 0 0 1 15.33,-15.33m0,-1.36a16.69,16.69 0 1 0 16.69,16.69a16.71,16.71 0 0 0 -16.69,-16.69z" data-name="Path 23" id="Path_23" transform="translate(-18 -18)"/>
   </g>
   <path class="cls-5" d="m53.52,39.34s4.7,-2.25 5.18,0.96s-7.7,5.99 -7.7,5.99" id="Path_13_1_" transform="translate(-16.261 -12.299)"/>
   <path class="cls-2" d="m25.36,31l20.44,0a1.37,1.37 0 0 1 1.36,1.36l-4.09,13.62a1.37,1.37 0 0 1 -1.36,1.37l-12.26,0a1.37,1.37 0 0 1 -1.36,-1.37l-4.09,-13.62a1.37,1.37 0 0 1 1.36,-1.36z" id="Path_11_1_" transform="translate(-7.652 -9.884)"/>
   <path class="cls-3" d="m27.2,36.17c-0.07,-0.2 3.2,10.9 3.2,10.9l12.19,0l3.2,-11.1s-1.83,2.45 -5.92,1.91s-5.65,-6.82 -12.67,-1.71z" id="Path_14_1_" transform="translate(-8.672 -10.897)"/>
   <path class="cls-2" d="m27.7,59.36a14.23,14.23 0 0 1 -1.5,-1.36l22.21,0a14.23,14.23 0 0 1 -1.5,1.36l-19.21,0z" id="Intersection_1_1_" transform="translate(-8.354 -18.493)"/>
   <g data-name="Group 20" id="Group_20" transform="translate(6.403 4.768)">
    <path class="cls-2" d="m11.04,22.88a4.34,4.34 0 0 1 -0.48,-0.14l-0.41,0c-0.14,0 -0.2,0.07 -0.34,0.14c-0.07,0.06 -0.2,0.13 -0.27,0.27l-0.14,-0.14a0.24,0.24 0 0 0 0.07,-0.13a0.21,0.21 0 0 0 0.07,-0.14c0.06,-0.14 0.2,-0.2 0.27,-0.34a1.43,1.43 0 0 1 0.41,-0.27a1.28,1.28 0 0 1 0.54,-0.14a1.6,1.6 0 0 1 0.75,0.14l3.88,1.22l-1.9,-2.72l-0.68,-0.2a4.34,4.34 0 0 1 -0.48,-0.14l-0.41,0c-0.14,0 -0.2,0.07 -0.34,0.14c-0.07,0.07 -0.2,0.13 -0.27,0.27l-0.14,-0.14a0.24,0.24 0 0 0 0.07,-0.13c0.07,-0.07 0.07,-0.14 0.14,-0.14c0.06,-0.13 0.19,-0.2 0.27,-0.34a1.43,1.43 0 0 1 0.41,-0.27a1.28,1.28 0 0 1 0.54,-0.14a1.6,1.6 0 0 1 0.75,0.14l3.88,1.22l-3,-4.36l0.28,-0.34l3.95,5.79l0,0.2l-4.23,-1.36l2.52,3.61l-0.13,0.2l-5.58,-1.76z" data-name="Path 24" id="Path_24" transform="translate(-9.4 -9.933)"/>
    <path class="cls-2" d="m27.04,11.44a2.46,2.46 0 0 0 -1.3,-0.88a2.06,2.06 0 0 0 -1.36,0.27a1.49,1.49 0 0 0 -0.68,0.61a2.3,2.3 0 0 0 -0.41,0.82a2.05,2.05 0 0 0 0.07,1.09a4.7,4.7 0 0 0 0.61,1.36a4.37,4.37 0 0 0 0.68,0.89a3.2,3.2 0 0 0 0.82,0.61a2.18,2.18 0 0 0 0.95,0.2a2.5,2.5 0 0 0 1.09,-0.34a2.56,2.56 0 0 0 0.96,-0.96a2.87,2.87 0 0 0 0.27,-1.36l0.27,0a4.19,4.19 0 0 1 -0.07,0.96a2.44,2.44 0 0 1 -0.27,0.74a3.74,3.74 0 0 1 -0.48,0.62a2.45,2.45 0 0 1 -0.68,0.47a2.9,2.9 0 0 1 -1.22,0.41a2.54,2.54 0 0 1 -1.23,-0.13a3.46,3.46 0 0 1 -1.09,-0.62a3.02,3.02 0 0 1 -0.82,-1.02a3.34,3.34 0 0 1 -0.47,-1.29a4.12,4.12 0 0 1 0,-1.3a2.47,2.47 0 0 1 0.47,-1.15a2.55,2.55 0 0 1 0.89,-0.82a4.37,4.37 0 0 1 1.36,-0.55a1.67,1.67 0 0 1 1.02,0.07a0.92,0.92 0 0 1 0.48,0.41c0.14,0.2 0.27,0.48 0.48,0.75l-0.34,0.14z" data-name="Path 25" id="Path_25" transform="translate(-13.617 -7.967)"/>
    <path class="cls-2" d="m34.39,7.07a5.79,5.79 0 0 1 1.77,0a1.62,1.62 0 0 1 0.75,0.41a1.54,1.54 0 0 1 0.41,0.88a1.36,1.36 0 0 1 -0.14,0.89a1.67,1.67 0 0 1 -0.88,0.75a2.81,2.81 0 0 1 0.82,0.07a1.37,1.37 0 0 1 0.54,0.27a1.81,1.81 0 0 1 0.34,0.41a4.69,4.69 0 0 1 0.2,0.54a1.5,1.5 0 0 1 -0.06,0.96a1.73,1.73 0 0 1 -0.55,0.68a1.55,1.55 0 0 1 -0.82,0.41a2.4,2.4 0 0 1 -0.95,0.2l-1.98,0.34l-0.95,-5.25a1.58,1.58 0 0 0 -0.27,-0.68c-0.07,-0.27 -0.27,-0.34 -0.55,-0.27l-0.2,0l-0.07,-0.2l2.59,-0.41zm0.68,2.93c0.2,-0.07 0.41,-0.07 0.55,-0.2s0.34,-0.2 0.47,-0.34a1.1,1.1 0 0 0 0.27,-0.48a0.95,0.95 0 0 0 0,-0.61a1.37,1.37 0 0 0 -0.27,-0.55a1.22,1.22 0 0 0 -0.47,-0.34a1.99,1.99 0 0 0 -0.62,-0.14a1.89,1.89 0 0 0 -0.61,0.07c-0.14,0 -0.27,0.07 -0.41,0.07c-0.14,0.06 -0.27,0.06 -0.34,0.13l0.47,2.52l0.96,-0.13zm-0.89,0.54l0.48,2.59l0.48,0a1.16,1.16 0 0 0 0.47,-0.07a2.1,2.1 0 0 0 1.3,-0.61a1.06,1.06 0 0 0 0.27,-1.09a1.41,1.41 0 0 0 -0.68,-0.95a1.97,1.97 0 0 0 -1.43,-0.07l-0.89,0.2z" data-name="Path 26" id="Path_26" transform="translate(-16.542 -7)"/>
    <path class="cls-2" d="m53.72,10.88a2.75,2.75 0 0 0 -0.2,-1.56a2.05,2.05 0 0 0 -1.09,-0.89a4.6,4.6 0 0 0 -0.95,-0.13a1.93,1.93 0 0 0 -0.89,0.27a2.73,2.73 0 0 0 -0.82,0.75a5.08,5.08 0 0 0 -0.68,1.36a2.82,2.82 0 0 0 -0.2,1.09a5.16,5.16 0 0 0 0.07,1.02a2.24,2.24 0 0 0 0.48,0.89a1.94,1.94 0 0 0 0.95,0.61a2.13,2.13 0 0 0 1.3,0.07a3.69,3.69 0 0 0 1.22,-0.68l0.14,0.2a2.61,2.61 0 0 1 -0.75,0.54a3.32,3.32 0 0 1 -0.75,0.27a1.69,1.69 0 0 1 -0.61,0.07a1.81,1.81 0 0 1 -0.82,-0.2a2.5,2.5 0 0 1 -1.16,-0.68a3.07,3.07 0 0 1 -0.68,-0.95a3.25,3.25 0 0 1 -0.28,-1.23a3.97,3.97 0 0 1 0.2,-1.29a3.57,3.57 0 0 1 0.68,-1.23a3.89,3.89 0 0 1 0.96,-0.89a3.35,3.35 0 0 1 1.16,-0.4a2.54,2.54 0 0 1 1.23,0.13a4.59,4.59 0 0 1 1.29,0.68a1.62,1.62 0 0 1 0.61,0.82a1.16,1.16 0 0 1 0,0.68a3.84,3.84 0 0 1 -0.27,0.82l-0.14,-0.14z" data-name="Path 27" id="Path_27" transform="translate(-21.707 -7.274)"/>
    <path class="cls-2" d="m58.58,19.81l0,-0.55l-0.07,0a0.92,0.92 0 0 1 -0.61,0a1.55,1.55 0 0 1 -0.82,-0.4c-0.13,-0.07 -0.2,-0.2 -0.34,-0.35a1.1,1.1 0 0 1 -0.27,-0.47a1.5,1.5 0 0 1 -0.07,-0.55a1.22,1.22 0 0 1 0.27,-0.61a1.06,1.06 0 0 1 0.55,-0.41a1.16,1.16 0 0 1 0.68,0a3.32,3.32 0 0 1 0.75,0.27a5.68,5.68 0 0 1 0.82,0.55l0.27,0.2a2.77,2.77 0 0 0 0.41,-0.75a2.11,2.11 0 0 0 0.13,-0.55a0.97,0.97 0 0 0 -0.13,-0.41c-0.07,-0.13 -0.2,-0.2 -0.28,-0.27a1.44,1.44 0 0 0 -0.68,-0.27a0.98,0.98 0 0 0 -0.68,0.27l-0.34,-0.27a0.82,0.82 0 0 1 0.34,-0.34a0.59,0.59 0 0 1 0.41,-0.2l0.27,0a1.15,1.15 0 0 1 0.34,0.13a1.49,1.49 0 0 1 0.35,0.2a1.43,1.43 0 0 1 0.4,0.28a1.59,1.59 0 0 1 0.48,0.47a1.37,1.37 0 0 1 0.27,0.55a1.47,1.47 0 0 1 -0.06,0.75a2.79,2.79 0 0 1 -0.55,0.95l-1.57,2.18l-0.27,-0.4zm1.09,-2.04l-0.27,-0.2a2.14,2.14 0 0 0 -1.09,-0.48c-0.34,0 -0.61,0.07 -0.75,0.34l-0.2,0.41l0,0.34c0,0.14 0.07,0.2 0.13,0.34c0.07,0.07 0.14,0.2 0.28,0.27a1.09,1.09 0 0 0 0.54,0.2a1.6,1.6 0 0 0 0.55,-0.13l0.81,-1.09z" data-name="Path 28" id="Path_28" transform="translate(-24.386 -9.455)"/>
    <path class="cls-2" d="m67.76,19.96a0.94,0.94 0 0 0 -0.27,-0.2a0.41,0.41 0 0 0 -0.28,-0.07a0.97,0.97 0 0 0 -0.41,0.14a2.07,2.07 0 0 0 -0.47,0.34l-0.27,0.2l0.88,1.02l-0.27,0.27l-0.89,-1.02l-3.27,2.8l-0.61,-0.69l3.27,-2.79l-0.48,-0.54l0.28,-0.28l0.47,0.55l0.2,-0.2a2.05,2.05 0 0 1 0.75,-0.41a1.16,1.16 0 0 1 0.68,0a1.37,1.37 0 0 1 0.55,0.27c0.13,0.14 0.34,0.27 0.48,0.41c0.27,0.34 0.4,0.55 0.4,0.75l0,0.27c0,0.07 -0.06,0.2 -0.06,0.27l-0.41,-0.06a1.01,1.01 0 0 0 -0.27,-1.03z" data-name="Path 29" id="Path_29" transform="translate(-26.139 -10.834)"/>
    <path class="cls-2" d="m68.73,29.56l-1.36,-2.66a2.38,2.38 0 0 0 -0.61,0.41a1.28,1.28 0 0 0 -0.41,0.48a1.6,1.6 0 0 0 -0.14,0.54a1.28,1.28 0 0 0 0.14,0.55a1.61,1.61 0 0 0 0.54,0.61a2.3,2.3 0 0 0 0.82,0.27l-0.07,0.27a1.89,1.89 0 0 1 -1.09,-0.34a3.57,3.57 0 0 1 -0.68,-0.75a2.6,2.6 0 0 1 -0.27,-0.88a3.42,3.42 0 0 1 0.14,-0.82a2.45,2.45 0 0 1 0.47,-0.68a3.02,3.02 0 0 1 0.75,-0.55a4.73,4.73 0 0 1 0.89,-0.34a1.94,1.94 0 0 1 0.88,0a1.51,1.51 0 0 1 0.75,0.34a1.42,1.42 0 0 1 0.55,0.68a1.92,1.92 0 0 1 0.2,1.57a2.28,2.28 0 0 1 -1.23,1.16l-0.27,0.14zm-0.06,-1.02a2.66,2.66 0 0 0 1.02,-0.82a0.84,0.84 0 0 0 0.07,-0.89c-0.07,-0.13 -0.2,-0.2 -0.35,-0.34a0.98,0.98 0 0 0 -0.47,-0.13a1.89,1.89 0 0 0 -0.62,0.07a4.7,4.7 0 0 0 -0.68,0.27l1.03,1.84z" data-name="Path 30" id="Path_30" transform="translate(-27.319 -12.938)"/>
   </g>
   <g data-name="Group 21" id="Group_21" transform="translate(10.217 39.03)">
    <path class="cls-2" d="m17.86,63.24a2.39,2.39 0 0 1 -0.54,0.35l-0.62,0a0.77,0.77 0 0 1 -0.55,-0.21a3.41,3.41 0 0 1 -0.54,-0.47a2.39,2.39 0 0 1 -0.34,-0.55a1.1,1.1 0 0 1 -0.2,-0.61a1.5,1.5 0 0 1 -0.07,-0.55a0.49,0.49 0 0 1 0.2,-0.41l0.68,-0.54l0.14,0.13a1.98,1.98 0 0 0 -0.55,1.16a1.81,1.81 0 0 0 0.41,1.09c0.07,0.14 0.2,0.2 0.27,0.27c0.14,0.07 0.2,0.14 0.34,0.14l0.35,0c0.13,0 0.2,-0.07 0.34,-0.14a0.94,0.94 0 0 0 0.34,-0.54a3.91,3.91 0 0 0 -0.07,-0.82l-0.2,-1.16a2.19,2.19 0 0 1 0,-0.95a1.15,1.15 0 0 1 0.48,-0.68a1.37,1.37 0 0 1 0.54,-0.27a0.75,0.75 0 0 1 0.55,0a0.91,0.91 0 0 1 0.54,0.2a2.96,2.96 0 0 1 0.48,0.4a1.48,1.48 0 0 1 0.34,0.55a2.8,2.8 0 0 1 0.2,0.54a0.75,0.75 0 0 1 0,0.55a0.78,0.78 0 0 1 -0.2,0.41l-0.68,0.54l-0.14,-0.13a1.98,1.98 0 0 0 0.55,-1.16a1.64,1.64 0 0 0 -0.41,-1.02a0.94,0.94 0 0 0 -0.27,-0.2a0.52,0.52 0 0 0 -0.34,-0.14l-0.35,0c-0.13,0 -0.2,0.07 -0.34,0.14a0.94,0.94 0 0 0 -0.2,0.27a0.41,0.41 0 0 0 -0.06,0.27l0,0.34a1.33,1.33 0 0 0 0.06,0.48l0.2,1.16c0,0.2 0.07,0.41 0.07,0.54l0,0.41a0.52,0.52 0 0 1 -0.14,0.34c-0.06,0.07 -0.2,0.14 -0.27,0.27z" data-name="Path 31" id="Path_31" transform="translate(-15 -57.659)"/>
    <path class="cls-2" d="m20.45,67.46l-0.55,-0.48l1.84,-2.18c0.13,-0.2 0.27,-0.34 0.27,-0.54s0,-0.34 -0.2,-0.48l-0.07,-0.07l0.14,-0.13l0.54,0.47c0.14,0.07 0.2,0.2 0.28,0.28l0,0.2a1.15,1.15 0 0 1 -0.14,0.34a1.43,1.43 0 0 1 -0.27,0.41l-1.84,2.18zm3,-3.61a0.35,0.35 0 0 1 -0.28,0.14a0.41,0.41 0 0 1 -0.27,-0.07a0.49,0.49 0 0 1 0,-0.68a0.35,0.35 0 0 1 0.27,-0.14a0.41,0.41 0 0 1 0.28,0.07a0.52,0.52 0 0 1 0.13,0.34a0.44,0.44 0 0 1 -0.14,0.34l0.01,0z" data-name="Path 32" id="Path_32" transform="translate(-16.562 -59.149)"/>
    <path class="cls-2" d="m24.86,67.36a1.09,1.09 0 0 0 0.2,-0.55a0.42,0.42 0 0 0 -0.27,-0.41l-0.14,-0.06l0.07,-0.14l0.62,0.34a0.8,0.8 0 0 1 0.34,0.34a0.51,0.51 0 0 1 0.06,0.34l0.07,0a1.16,1.16 0 0 1 0.48,-0.07a1.1,1.1 0 0 1 0.61,0.2c0.14,0.07 0.27,0.2 0.41,0.28a1.43,1.43 0 0 1 0.27,0.41a1.33,1.33 0 0 1 0.07,0.54a1.77,1.77 0 0 1 -0.27,0.68l-1.23,2.11l-0.61,-0.34l1.23,-2.11a3.32,3.32 0 0 1 0.2,-0.48l0,-0.41a0.35,0.35 0 0 0 -0.14,-0.27a0.94,0.94 0 0 0 -0.27,-0.2a0.5,0.5 0 0 0 -0.41,-0.13c-0.14,0 -0.34,0.06 -0.48,0.06l-1.56,2.73l-0.62,-0.34l1.37,-2.52z" data-name="Path 33" id="Path_33" transform="translate(-17.71 -60.138)"/>
    <path class="cls-2" d="m33.45,70.24a7.07,7.07 0 0 1 0.68,0.27a0.56,0.56 0 0 1 0.34,0.34c0,0.07 0.07,0.13 0.07,0.2l0,0.2a0.41,0.41 0 0 1 -0.07,0.27c0,0.14 -0.06,0.2 -0.13,0.41l-0.14,-0.07a1.07,1.07 0 0 0 -0.07,-0.81a1.48,1.48 0 0 0 -0.61,-0.48a0.75,0.75 0 0 0 -0.54,0c-0.14,0.07 -0.35,0.13 -0.48,0.2a1.22,1.22 0 0 0 -0.34,0.48c-0.07,0.2 -0.2,0.4 -0.27,0.61a2.02,2.02 0 0 0 -0.14,0.68a1.33,1.33 0 0 0 0.07,0.54a1.04,1.04 0 0 0 0.75,0.75a3.06,3.06 0 0 0 0.75,0.07a1.39,1.39 0 0 0 0.61,-0.34l0.14,0.14a2.02,2.02 0 0 1 -0.89,0.41a1.35,1.35 0 0 1 -0.89,-0.07a1.62,1.62 0 0 1 -0.75,-0.41a1.06,1.06 0 0 1 -0.4,-0.55a2.42,2.42 0 0 1 -0.14,-0.66a2.45,2.45 0 0 1 0.14,-0.75a3.65,3.65 0 0 1 0.34,-0.75a1.84,1.84 0 0 1 0.47,-0.55a2.04,2.04 0 0 1 0.68,-0.27c0.28,0.07 0.48,0.07 0.82,0.14z" data-name="Path 34" id="Path_34" transform="translate(-20.101 -61.381)"/>
    <path class="cls-2" d="m41.13,73.48l-2.45,-0.13l0,0.61a0.62,0.62 0 0 0 0.2,0.48a0.82,0.82 0 0 0 0.34,0.34a0.98,0.98 0 0 0 0.48,0.13a1.12,1.12 0 0 0 0.68,-0.13c0.2,-0.07 0.34,-0.27 0.55,-0.48l0.13,0.14a1.93,1.93 0 0 1 -0.68,0.61a1.73,1.73 0 0 1 -0.82,0.14a1.37,1.37 0 0 1 -0.75,-0.2a1.59,1.59 0 0 1 -0.47,-0.48a2.04,2.04 0 0 1 -0.27,-0.68a3.05,3.05 0 0 1 -0.07,-0.82a2.45,2.45 0 0 1 0.14,-0.75a2.76,2.76 0 0 1 0.34,-0.61a3.78,3.78 0 0 1 0.54,-0.41a2.02,2.02 0 0 1 0.68,-0.14a1.49,1.49 0 0 1 1.5,1.91l-0.07,0.47zm-0.68,-0.34a2.5,2.5 0 0 0 -0.13,-1.09a0.66,0.66 0 0 0 -0.62,-0.41a0.51,0.51 0 0 0 -0.34,0.07a0.53,0.53 0 0 0 -0.27,0.27a3.32,3.32 0 0 0 -0.2,0.48c-0.07,0.2 -0.07,0.34 -0.14,0.61l1.7,0.07z" data-name="Path 35" id="Path_35" transform="translate(-22.333 -61.7)"/>
    <path class="cls-2" d="m51.14,72.9a0.98,0.98 0 0 0 0.68,-0.41a0.78,0.78 0 0 0 0.07,-0.68l0.13,-0.07l0.14,0.55c0,0.07 0.07,0.13 0.07,0.27s0,0.14 -0.07,0.2s-0.07,0.14 -0.14,0.2a0.52,0.52 0 0 1 -0.34,0.14l-2.79,0.81l-0.07,-0.47a11.98,11.98 0 0 1 0.82,-1.37a5.4,5.4 0 0 0 0.54,-1.07a6.33,6.33 0 0 0 0.28,-0.89a2.03,2.03 0 0 0 -0.07,-0.88a3.32,3.32 0 0 0 -0.2,-0.48a0.68,0.68 0 0 0 -0.34,-0.27a0.97,0.97 0 0 0 -0.41,-0.14a0.86,0.86 0 0 0 -0.41,0.07a1.21,1.21 0 0 0 -0.75,0.55a1.97,1.97 0 0 0 -0.2,1.15l-0.14,0a2.11,2.11 0 0 1 -0.13,-0.54a1.16,1.16 0 0 1 0.07,-0.48a1.88,1.88 0 0 1 0.47,-0.61a1.86,1.86 0 0 1 0.82,-0.41a2.21,2.21 0 0 1 1.09,0a2.39,2.39 0 0 1 0.54,0.34a1.54,1.54 0 0 1 0.35,0.75a1.74,1.74 0 0 1 0,1.02a3.21,3.21 0 0 1 -0.41,1.02c-0.2,0.34 -0.41,0.68 -0.68,1.09a11.85,11.85 0 0 0 -0.75,1.23l1.83,-0.62z" data-name="Path 36" id="Path_36" transform="translate(-25.458 -60.712)"/>
    <path class="cls-2" d="m55.39,65.37a1.65,1.65 0 0 1 0.88,-0.27a1.81,1.81 0 0 1 0.82,0.2a2.97,2.97 0 0 1 0.75,0.61a11.56,11.56 0 0 1 0.68,0.96a3.8,3.8 0 0 1 0.48,1.09a2.48,2.48 0 0 1 0.14,0.95a1.81,1.81 0 0 1 -0.2,0.82a1.22,1.22 0 0 1 -0.68,0.61a2.6,2.6 0 0 1 -0.89,0.28a1.81,1.81 0 0 1 -0.82,-0.2a2.97,2.97 0 0 1 -0.75,-0.62a11.56,11.56 0 0 1 -0.68,-0.95a3.8,3.8 0 0 1 -0.47,-1.09a2.48,2.48 0 0 1 -0.15,-0.96a1.81,1.81 0 0 1 0.2,-0.82a1.49,1.49 0 0 1 0.69,-0.61zm0.2,0.27a1.16,1.16 0 0 0 -0.41,0.41a1.51,1.51 0 0 0 -0.07,0.62a4.19,4.19 0 0 0 0.2,0.75a7.87,7.87 0 0 0 0.54,1.02c0.2,0.34 0.41,0.68 0.62,0.95a2.47,2.47 0 0 0 0.55,0.61a0.91,0.91 0 0 0 0.55,0.2a0.82,0.82 0 0 0 0.54,-0.14a1.16,1.16 0 0 0 0.41,-0.4a1.51,1.51 0 0 0 0.07,-0.62a4.19,4.19 0 0 0 -0.2,-0.75a7.87,7.87 0 0 0 -0.55,-1.02c-0.2,-0.34 -0.41,-0.68 -0.61,-0.95a2.47,2.47 0 0 0 -0.55,-0.62a0.91,0.91 0 0 0 -0.54,-0.2a0.53,0.53 0 0 0 -0.55,0.14z" data-name="Path 37" id="Path_37" transform="translate(-27.594 -59.787)"/>
    <path class="cls-2" d="m64.22,66.02l-0.55,0.48l-3.06,-3.41l-0.2,0.95l-0.2,-0.06l0.2,-1.7l0.27,-0.28l3.54,4.02z" data-name="Path 38" id="Path_38" transform="translate(-29.412 -58.799)"/>
    <path class="cls-2" d="m63.49,58.05a2.77,2.77 0 0 1 0.68,-0.61a1.73,1.73 0 0 1 0.82,-0.14a2.92,2.92 0 0 1 0.95,0.27a4.07,4.07 0 0 1 1.02,0.61a10.48,10.48 0 0 1 0.89,0.82a5.68,5.68 0 0 1 0.54,0.82a1.14,1.14 0 0 1 0.07,0.82a1.55,1.55 0 0 1 -0.41,0.81a2.77,2.77 0 0 1 -0.68,0.62a1.73,1.73 0 0 1 -0.82,0.13a2.92,2.92 0 0 1 -0.95,-0.27a4.07,4.07 0 0 1 -1.02,-0.61a10.48,10.48 0 0 1 -0.89,-0.82a2.85,2.85 0 0 1 -0.54,-0.82a1.14,1.14 0 0 1 -0.07,-0.81a4.48,4.48 0 0 1 0.41,-0.82zm0.27,0.2a0.91,0.91 0 0 0 -0.2,0.54a1.6,1.6 0 0 0 0.14,0.55a2.21,2.21 0 0 0 0.54,0.61c0.2,0.2 0.55,0.48 0.89,0.75a5.48,5.48 0 0 0 0.95,0.61a6.64,6.64 0 0 0 0.75,0.35a0.95,0.95 0 0 0 0.61,0a1.22,1.22 0 0 0 0.48,-0.35a0.91,0.91 0 0 0 0.2,-0.54a1.6,1.6 0 0 0 -0.14,-0.55a2.21,2.21 0 0 0 -0.54,-0.61c-0.2,-0.2 -0.55,-0.48 -0.89,-0.75a5.48,5.48 0 0 0 -0.95,-0.61a6.64,6.64 0 0 0 -0.75,-0.34a0.95,0.95 0 0 0 -0.61,0a1.22,1.22 0 0 0 -0.48,0.34z" data-name="Path 39" id="Path_39" transform="translate(-30.315 -57.3)"/>
   </g>
  </g>
  <circle class="cls-4" cx="2.04" cy="2.04" id="Ellipse_9_2_" r="2.04" transform="translate(5.517 26.906)"/>
  <circle class="cls-4" cx="2.04" cy="2.04" id="Ellipse_9_1_" r="2.04" transform="translate(48.294 26.906)"/>
  <text fill="#000000" font-family="Serif" font-size="24" id="svg_1" stroke="#000000" stroke-width="0" text-anchor="middle" transform="matrix(1.13757 0 0 1.35689 31.7861 35.8684)" x="90.74" xml:space="preserve" y="5.18">Neko CAFE</text>
 </g>
</svg>